{
  "accessors": [
    {
      "bufferView": 0,
      "byteOffset": 0,
      "count": 36,
      "componentType": 5126,
      "type": "VEC3",
      "min": [
        -0.5,
        0.0,
        -0.5
      ],
      "max": [
        0.5,
        1.0,
        0.5
      ]
    },
    {
      "bufferView": 1,
      "byteOffset": 0,
      "count": 36,
      "componentType": 5126,
      "type": "VEC3"
    },
    {
      "bufferView": 2,
      "byteOffset": 0,
      "count": 36,
      "componentType": 5126,
      "type": "VEC2"
    },
    {
      "bufferView": 3,
      "byteOffset": 0,
      "count": 36,
      "componentType": 5125,
      "type": "SCALAR"
    },
    {
      "bufferView": 4,
      "byteOffset": 0,
      "count": 18,
      "componentType": 5125,
      "type": "VEC2"
    },
    {
      "bufferView": 5,
      "byteOffset": 0,
      "count": 18,
      "componentType": 5121,
      "type": "SCALAR"
    },
    {
      "bufferView": 6,
      "byteOffset": 0,
      "count": 12,
      "componentType": 5125,
      "type": "SCALAR"
    },
    {
      "bufferView": 7,
      "byteOffset": 0,
      "count": 12,
      "componentType": 5126,
      "type": "MAT4"
    }
  ],
  "asset": {
    "version": "2.0"
  },
  "buffers": [
    {
      "byteLength": 2276,
      "uri": "data:application/octet-stream;base64,"
    }
  ],
  "bufferViews": [
    {
      "buffer": 0,
      "byteLength": 432,
      "byteOffset": 0,
      "target": 34962
    },
    {
      "buffer": 0,
      "byteLength": 432,
      "byteOffset": 432,
      "target": 34962
    },
    {
      "buffer": 0,
      "byteLength": 288,
      "byteOffset": 864,
      "target": 34962
    },
    {
      "buffer": 0,
      "byteLength": 144,
      "byteOffset": 1152,
      "target": 34963
    },
    {
      "buffer": 0,
      "byteLength": 144,
      "byteOffset": 1296,
      "target": 34962
    },
    {
      "buffer": 0,
      "byteLength": 18,
      "byteOffset": 1440,
      "target": 34962
    },
    {
      "buffer": 0,
      "byteLength": 48,
      "byteOffset": 1460,
      "target": 34962
    },
    {
      "buffer": 0,
      "byteLength": 768,
      "byteOffset": 1508,
      "target": 34962
    }
  ],
  "scene": 0,
  "meshes": [
    {
      "extras": {"papercraft":{"cuts":{"VERTICES":4,"FLAP_POSITION":5},"pieces":{"FACE":6,"TRANSFORM":7}}},
      "name": "CUBE",
      "primitives": [
        {
          "attributes": {
            "POSITION": 0,
            "NORMAL": 1,
            "TEXCOORD_0": 2
          },
          "indices": 3
        }
      ]
    }
  ],
  "nodes": [
    {
      "mesh": 0,
      "name": "Node_0"
    }
  ],
  "scenes": [
    {
      "name": "Scene",
      "nodes": [
        0
      ]
    }
  ]
}
